<svg xmlns="http://www.w3.org/2000/svg" xmlns:xlink="http://www.w3.org/1999/xlink" viewBox="0 0 421.99 283.43"><defs><style>.cls-1,.cls-10,.cls-12,.cls-15,.cls-19,.cls-5,.cls-6,.cls-7,.cls-8,.cls-9{fill:none;}.cls-2{isolation:isolate;}.cls-3{clip-path:url(#clip-path);}.cls-4{opacity:0.16;}.cls-5,.cls-6{stroke:#000;opacity:0.33;}.cls-5,.cls-7{stroke-width:0.46px;}.cls-12,.cls-6,.cls-8{stroke-width:0.93px;}.cls-7,.cls-8{stroke:#000bff;}.cls-10,.cls-7,.cls-8,.cls-9{opacity:0.55;}.cls-10,.cls-9{stroke:#ff0600;}.cls-9{stroke-width:0.46px;}.cls-10{stroke-width:0.93px;}.cls-11{font-size:13.32px;font-family:CairoFont-0-0, CairoFont 0-0;}.cls-11,.cls-13{fill:#666;}.cls-12,.cls-15,.cls-19{stroke:#fff;}.cls-14,.cls-18{font-size:12.79px;font-family:CMUSerif-Bold, CMUSerif Bold;font-weight:700;}.cls-14,.cls-16,.cls-17{fill:#f36e6e;}.cls-15{stroke-width:0.83px;}.cls-16,.cls-20{font-size:8.96px;font-family:Cmmi10, Cmmi10;}.cls-18,.cls-20,.cls-21{fill:#547dde;}.cls-19{stroke-width:0.93px;}</style><clipPath id="clip-path" transform="translate(-0.79 -1.64)"><rect class="cls-1" width="425.2" height="285.66"/></clipPath></defs><title>Asset 1</title><g id="Layer_2" data-name="Layer 2"><g id="Layer_1-2" data-name="Layer 1"><g class="cls-2"><g class="cls-2"><g class="cls-2"><g class="cls-3"><polygon class="cls-4" points="74.04 42.18 254.65 42.18 254.72 56.16 74.12 56.17 74.04 42.18"/><line class="cls-5" x1="18.43" y1="0.46" x2="18.43" y2="278.46"/><line class="cls-5" x1="32.33" y1="0.46" x2="32.33" y2="278.46"/><line class="cls-5" x1="46.23" y1="0.46" x2="46.23" y2="278.46"/><line class="cls-5" x1="60.13" y1="0.46" x2="60.13" y2="278.46"/><line class="cls-5" x1="74.03" y1="0.46" x2="74.03" y2="278.46"/><line class="cls-5" x1="87.93" y1="0.46" x2="87.93" y2="278.46"/><line class="cls-5" x1="101.83" y1="0.46" x2="101.83" y2="278.46"/><line class="cls-5" x1="115.73" y1="0.46" x2="115.73" y2="278.46"/><line class="cls-5" x1="129.63" y1="0.46" x2="129.63" y2="278.46"/><line class="cls-5" x1="143.53" y1="0.46" x2="143.53" y2="278.46"/><line class="cls-5" x1="157.43" y1="0.46" x2="157.43" y2="278.46"/><line class="cls-5" x1="171.33" y1="0.46" x2="171.33" y2="278.46"/><line class="cls-5" x1="185.23" y1="0.46" x2="185.23" y2="278.46"/><line class="cls-5" x1="199.13" y1="0.46" x2="199.13" y2="278.46"/><line class="cls-5" x1="213.03" y1="0.46" x2="213.03" y2="278.46"/><line class="cls-5" x1="226.93" y1="0.46" x2="226.93" y2="278.46"/><line class="cls-5" x1="240.83" y1="0.46" x2="240.83" y2="278.46"/><line class="cls-5" x1="254.73" y1="0.46" x2="254.73" y2="278.46"/><line class="cls-5" x1="268.63" y1="0.46" x2="268.63" y2="278.46"/><line class="cls-5" x1="282.53" y1="0.46" x2="282.53" y2="278.46"/><line class="cls-5" x1="296.43" y1="0.46" x2="296.43" y2="278.46"/><line class="cls-5" x1="310.33" y1="0.46" x2="310.33" y2="278.46"/><line class="cls-5" x1="324.23" y1="0.46" x2="324.23" y2="278.46"/><line class="cls-5" x1="338.13" y1="0.46" x2="338.13" y2="278.46"/><line class="cls-5" x1="352.03" y1="0.46" x2="352.03" y2="278.46"/><line class="cls-5" x1="365.93" y1="0.46" x2="365.93" y2="278.46"/><line class="cls-5" x1="379.83" y1="0.46" x2="379.83" y2="278.46"/><line class="cls-5" x1="393.73" y1="0.46" x2="393.73" y2="278.46"/><line class="cls-5" x1="407.63" y1="0.46" x2="407.63" y2="278.46"/><line class="cls-5" x1="4.53" y1="14.36" x2="421.53" y2="14.36"/><line class="cls-5" x1="4.53" y1="28.26" x2="421.53" y2="28.26"/><line class="cls-5" x1="4.53" y1="42.16" x2="421.53" y2="42.16"/><line class="cls-5" x1="4.53" y1="56.06" x2="421.53" y2="56.06"/><line class="cls-5" x1="4.53" y1="69.96" x2="421.53" y2="69.96"/><line class="cls-5" x1="4.53" y1="83.86" x2="421.53" y2="83.86"/><line class="cls-5" x1="4.53" y1="97.76" x2="421.53" y2="97.76"/><line class="cls-5" x1="4.53" y1="111.66" x2="421.53" y2="111.66"/><line class="cls-5" x1="4.53" y1="125.56" x2="421.53" y2="125.56"/><line class="cls-5" x1="4.53" y1="139.46" x2="421.53" y2="139.46"/><line class="cls-5" x1="4.53" y1="153.36" x2="421.53" y2="153.36"/><line class="cls-5" x1="4.53" y1="167.26" x2="421.53" y2="167.26"/><line class="cls-5" x1="4.53" y1="181.16" x2="421.53" y2="181.16"/><line class="cls-5" x1="4.53" y1="195.06" x2="421.53" y2="195.06"/><line class="cls-5" x1="4.53" y1="208.96" x2="421.53" y2="208.96"/><line class="cls-5" x1="4.53" y1="222.86" x2="421.53" y2="222.86"/><line class="cls-5" x1="4.53" y1="236.76" x2="421.53" y2="236.76"/><line class="cls-5" x1="4.53" y1="250.66" x2="421.53" y2="250.66"/><line class="cls-5" x1="4.53" y1="264.56" x2="421.53" y2="264.56"/><rect class="cls-6" x="4.53" y="0.46" width="417" height="278"/><line class="cls-7" x1="181.74" y1="85.27" x2="221.5" y2="247.26"/><line class="cls-7" x1="195.24" y1="81.96" x2="235" y2="243.95"/><line class="cls-7" x1="208.74" y1="78.65" x2="248.5" y2="240.64"/><line class="cls-7" x1="222.24" y1="75.33" x2="262" y2="237.32"/><line class="cls-7" x1="235.74" y1="72.02" x2="275.5" y2="234.01"/><line class="cls-7" x1="249.24" y1="68.71" x2="289" y2="230.7"/><line class="cls-7" x1="262.74" y1="65.39" x2="302.5" y2="227.38"/><line class="cls-7" x1="276.24" y1="62.08" x2="316" y2="224.07"/><line class="cls-7" x1="289.74" y1="58.77" x2="329.49" y2="220.76"/><line class="cls-7" x1="303.23" y1="55.45" x2="342.99" y2="217.44"/><line class="cls-7" x1="316.73" y1="52.14" x2="356.49" y2="214.13"/><line class="cls-7" x1="171.56" y1="102.09" x2="333.55" y2="62.33"/><line class="cls-7" x1="174.87" y1="115.59" x2="336.86" y2="75.83"/><line class="cls-7" x1="178.18" y1="129.08" x2="340.17" y2="89.33"/><line class="cls-7" x1="181.5" y1="142.58" x2="343.48" y2="102.83"/><line class="cls-7" x1="184.81" y1="156.08" x2="346.8" y2="116.32"/><line class="cls-7" x1="188.12" y1="169.58" x2="350.11" y2="129.82"/><line class="cls-7" x1="191.44" y1="183.08" x2="353.43" y2="143.32"/><line class="cls-7" x1="194.75" y1="196.58" x2="356.74" y2="156.82"/><line class="cls-7" x1="198.06" y1="210.08" x2="360.05" y2="170.32"/><line class="cls-7" x1="201.38" y1="223.58" x2="363.37" y2="183.82"/><line class="cls-7" x1="204.69" y1="237.08" x2="366.68" y2="197.32"/><rect class="cls-8" x="186.51" y="67.94" width="166.8" height="166.8" transform="translate(-29.09 67.07) rotate(-13.79)"/><line class="cls-9" x1="93.81" y1="46.26" x2="84.73" y2="212.81"/><line class="cls-9" x1="107.69" y1="47.02" x2="98.6" y2="213.57"/><line class="cls-9" x1="121.57" y1="47.78" x2="112.48" y2="214.32"/><line class="cls-9" x1="135.45" y1="48.53" x2="126.36" y2="215.08"/><line class="cls-9" x1="149.32" y1="49.29" x2="140.24" y2="215.84"/><line class="cls-9" x1="163.2" y1="50.05" x2="154.12" y2="216.6"/><line class="cls-9" x1="177.08" y1="50.8" x2="168" y2="217.35"/><line class="cls-9" x1="190.96" y1="51.56" x2="181.88" y2="218.11"/><line class="cls-9" x1="204.84" y1="52.32" x2="195.76" y2="218.87"/><line class="cls-9" x1="218.72" y1="53.07" x2="209.64" y2="219.63"/><line class="cls-9" x1="232.6" y1="53.83" x2="223.52" y2="220.38"/><line class="cls-9" x1="79.17" y1="59.38" x2="245.72" y2="68.47"/><line class="cls-9" x1="78.42" y1="73.26" x2="244.96" y2="82.35"/><line class="cls-9" x1="77.66" y1="87.14" x2="244.21" y2="96.23"/><line class="cls-9" x1="76.9" y1="101.02" x2="243.45" y2="110.11"/><line class="cls-9" x1="76.14" y1="114.9" x2="242.7" y2="123.98"/><line class="cls-9" x1="75.39" y1="128.78" x2="241.94" y2="137.86"/><line class="cls-9" x1="74.63" y1="142.66" x2="241.18" y2="151.74"/><line class="cls-9" x1="73.87" y1="156.54" x2="240.42" y2="165.62"/><line class="cls-9" x1="73.12" y1="170.42" x2="239.67" y2="179.5"/><line class="cls-9" x1="72.36" y1="184.3" x2="238.91" y2="193.38"/><line class="cls-9" x1="71.6" y1="198.18" x2="238.15" y2="207.26"/><rect class="cls-10" x="76.05" y="51.56" width="166.8" height="166.8" transform="translate(15.22 285.19) rotate(-86.88)"/><text class="cls-11" transform="matrix(1, 0, 0, 1, 12.26, 267.85)">W</text><path class="cls-12" d="M14.92,269.6a1.37,1.37,0,0,1,0-.19l.06-.2c0-.06,0-.12,0-.16.12-.57.23-1.26.34-2.07a17.72,17.72,0,0,0,.17-2.36,7.72,7.72,0,0,0-.36-2.48,1.39,1.39,0,0,0-1.41-1.05.45.45,0,0,1-.3-.4.57.57,0,0,1,.2-.44,1.78,1.78,0,0,1,.45-.28,1.87,1.87,0,0,1,.42-.14h.12a1.89,1.89,0,0,1,2,1.36,8.73,8.73,0,0,1,.48,3,18,18,0,0,1-.12,2.28,27.09,27.09,0,0,0,1.57-2.29c.72-1.11,1.35-2.19,1.88-3.22l-.05-.15a.71.71,0,0,1,.37-.65,1.9,1.9,0,0,1,.7-.28h.22c.19.12.2.24.06.33a19.64,19.64,0,0,1,1.34,4.45c.06.33.11.68.16,1.06s.08.73.11,1a5.29,5.29,0,0,1,0,.63,3.29,3.29,0,0,1,.5-.74c.38-.49.75-1,1.12-1.59a11.15,11.15,0,0,0,.88-1.55,2.77,2.77,0,0,0,.33-1.1.77.77,0,0,0-.14-.51.58.58,0,0,0-.45-.18q-.36,0-.36-.51a2.05,2.05,0,0,1,.22-.81q.21-.51.6-.51a1.1,1.1,0,0,1,1,.55,2.17,2.17,0,0,1,.32,1.17,9.07,9.07,0,0,1-1.65,4.3c-.43.69-.94,1.42-1.53,2.22A17.15,17.15,0,0,1,22.58,270a.7.7,0,0,1-.3.1A.33.33,0,0,1,22,270a.5.5,0,0,1-.09-.18c0-.06,0-.1,0-.14a25.52,25.52,0,0,0-1-7.38c-.13.23-.38.67-.77,1.33s-.78,1.3-1.17,1.89l-.23.37-1,1.36c-.52.72-1,1.38-1.48,2s-.78.87-1,.87S14.92,269.94,14.92,269.6Z" transform="translate(-0.79 -1.64)"/><polygon class="cls-13" points="4.6 243.08 0 258.48 3.34 255.58 3.49 276.97 3.46 279.68 25.18 279.75 21.3 283.43 39.97 278.54 21.56 272.83 25.6 277.08 5.81 276.96 5.62 255.69 9.14 259.66 4.6 243.08 4.6 243.08"/><text class="cls-11" transform="matrix(1, 0, 0, 1, 12.26, 267.85)">W</text><text class="cls-14" transform="translate(121.24 148.41) rotate(3.53)">p</text><path class="cls-15" d="M124.93,148.73l.17-2.71c0-.24,0-.25.22-.42a2.1,2.1,0,0,1,1.49-.52c.86,0,1.52.89,1.42,2.5-.11,1.79-1,2.4-1.86,2.35a1.7,1.7,0,0,1-1.33-.78C124.91,149,124.92,149,124.93,148.73ZM122.38,152l0,.59c.36,0,1.13,0,1.61.06s1.25.11,1.61.13l0-.58-.89-.06.14-2.38a2.53,2.53,0,0,0,1.61.67,2.9,2.9,0,0,0,3.39-2.71,2.79,2.79,0,0,0-2.82-3.09,3.14,3.14,0,0,0-2,.51l0-.63-2.27,0,0,.6c.8.05.89.05.86.54l-.4,6.44Z" transform="translate(-0.79 -1.64)"/><text class="cls-16" transform="translate(127.56 151.9) rotate(3.53)">a</text><path class="cls-15" d="M129.92,153.5a.94.94,0,0,0,.64-.2,2.39,2.39,0,0,0,.55-.55h0l.59-1.91v0a1.18,1.18,0,0,0-.2-.56.53.53,0,0,0-.46-.26.8.8,0,0,0-.57.21,2.28,2.28,0,0,0-.47.55,6.53,6.53,0,0,0-.4,1,5.25,5.25,0,0,0-.21.95,1.08,1.08,0,0,0,.1.57A.43.43,0,0,0,129.92,153.5Zm0,.24a1.06,1.06,0,0,1-.86-.48,1.65,1.65,0,0,1-.27-1,3,3,0,0,1,1.24-2.14,1.7,1.7,0,0,1,1.1-.34.84.84,0,0,1,.47.17,1,1,0,0,1,.3.42c.08-.24.23-.36.42-.35a.26.26,0,0,1,.18.09.24.24,0,0,1,.07.19v.07l-.78,2.45a2.69,2.69,0,0,0-.09.42c0,.27.06.4.24.41a.46.46,0,0,0,.44-.32,5.93,5.93,0,0,0,.3-.82s0,0,.07,0h.11a.05.05,0,0,1,0,0,.09.09,0,0,1,0,.06,4.41,4.41,0,0,1-.42,1,.62.62,0,0,1-.62.34.87.87,0,0,1-.52-.21.72.72,0,0,1-.26-.49A1.61,1.61,0,0,1,129.9,153.74Z" transform="translate(-0.79 -1.64)"/><text class="cls-14" transform="translate(121.24 148.41) rotate(3.53)">p</text><text class="cls-16" transform="translate(127.56 151.9) rotate(3.53)">a</text><polygon class="cls-17" points="117.58 118.96 111.51 136.01 115.42 132.94 114.34 156.99 114.14 160.03 138.56 161.4 133.98 165.3 155.25 160.91 134.9 153.41 139.19 158.42 116.95 157.12 117.99 133.2 121.71 137.87 117.58 118.96 117.58 118.96"/><text class="cls-18" transform="matrix(0.97, -0.24, 0.24, 0.97, 275.32, 152.29)">p</text><path class="cls-19" d="M278.48,151.79l-.66-2.63c-.06-.24-.05-.25.08-.47a2.06,2.06,0,0,1,1.25-.94c.84-.21,1.73.38,2.12,1.94.44,1.75-.26,2.61-1.06,2.81a1.7,1.7,0,0,1-1.49-.34A.47.47,0,0,1,278.48,151.79ZM277,155.64l.14.58,1.56-.43c.49-.13,1.23-.28,1.58-.36l-.14-.58-.86.22-.58-2.31a2.51,2.51,0,0,0,1.72.15,2.9,2.9,0,0,0,2.4-3.62,2.79,2.79,0,0,0-3.62-2.09,3.26,3.26,0,0,0-1.71,1.08l-.15-.61-2.19.65.15.58c.78-.19.86-.21,1,.26l1.58,6.26Z" transform="translate(-0.79 -1.64)"/><text class="cls-20" transform="matrix(0.97, -0.24, 0.24, 0.97, 283.67, 154.61)">b</text><path class="cls-19" d="M286,155.74a.88.88,0,0,0,.49-.39,2.38,2.38,0,0,0,.28-.66,5.41,5.41,0,0,0,.09-1,4.91,4.91,0,0,0-.09-1,1.13,1.13,0,0,0-.27-.52A.45.45,0,0,0,286,152a.93.93,0,0,0-.54.39,2.73,2.73,0,0,0-.37.67v1a4.27,4.27,0,0,0,.08.92,1.2,1.2,0,0,0,.28.55A.49.49,0,0,0,286,155.74Zm0,.23a1,1,0,0,1-.92-.2,1.66,1.66,0,0,1-.54-.9,1.38,1.38,0,0,1,0-.32,2.32,2.32,0,0,0,0-.3l0-3.58a2,2,0,0,0,0-.26c0-.09-.22-.08-.59,0-.06,0-.1,0-.12-.1s0,0,0-.08a.22.22,0,0,1,0-.09.07.07,0,0,1,.06,0l1.15-.39a.1.1,0,0,1,.14.08v2.73a1.47,1.47,0,0,1,.87-.73,1.05,1.05,0,0,1,.68,0,1.23,1.23,0,0,1,.53.41,1.85,1.85,0,0,1,.31.63,2.72,2.72,0,0,1,0,.91,3.47,3.47,0,0,1-.23,1,2.6,2.6,0,0,1-.53.8A1.66,1.66,0,0,1,286,156Z" transform="translate(-0.79 -1.64)"/><text class="cls-18" transform="matrix(0.97, -0.24, 0.24, 0.97, 275.32, 152.29)">p</text><text class="cls-20" transform="matrix(0.97, -0.24, 0.24, 0.97, 283.67, 154.61)">b</text><polygon class="cls-21" points="263.06 124.22 262.24 142.29 265.09 138.21 271.09 161.53 271.79 164.5 295.54 158.65 292.3 163.73 311.36 153.3 289.7 152.09 295.27 155.63 273.62 160.89 267.62 137.71 272.55 141.09 263.06 124.22 263.06 124.22"/><polygon class="cls-4" points="74.04 56.11 254.76 56.1 254.84 70.09 74.12 70.1 74.04 56.11"/><polygon class="cls-4" points="73.92 69.99 254.64 69.98 254.72 83.97 74 83.98 73.92 69.99"/><polygon class="cls-4" points="74 83.91 254.6 83.91 254.68 97.9 74.08 97.9 74 83.91"/><polygon class="cls-4" points="74 97.63 254.49 97.63 254.57 111.61 74.08 111.62 74 97.63"/><polygon class="cls-4" points="74 111.76 254.49 111.76 254.57 125.75 74.08 125.75 74 111.76"/><polygon class="cls-4" points="74.06 125.66 254.55 125.66 254.63 139.65 74.14 139.65 74.06 125.66"/><polygon class="cls-4" points="60.06 139.18 254.66 139.17 254.75 153.16 60.14 153.17 60.06 139.18"/><polygon class="cls-4" points="60.06 153.27 254.9 153.26 254.98 167.25 60.14 167.25 60.06 153.27"/><polygon class="cls-4" points="60.06 167.03 240.89 167.02 240.97 181.01 60.13 181.01 60.06 167.03"/><polygon class="cls-4" points="60.06 180.87 240.77 180.86 240.85 194.85 60.13 194.86 60.06 180.87"/><polygon class="cls-4" points="60.06 195.12 240.54 195.11 240.62 209.1 60.13 209.11 60.06 195.12"/><polygon class="cls-4" points="60.06 209.04 240.77 209.04 240.85 223.03 60.13 223.03 60.06 209.04"/><polygon class="cls-4" points="171.19 125.4 365.87 125.39 365.95 139.38 171.27 139.39 171.19 125.4"/><polygon class="cls-4" points="171.19 111.47 351.79 111.47 351.86 125.46 171.26 125.47 171.19 111.47"/><polygon class="cls-4" points="157.26 97.72 352.11 97.71 352.19 111.7 157.34 111.7 157.26 97.72"/><polygon class="cls-4" points="157.26 83.46 352.11 83.46 352.19 97.45 157.34 97.45 157.26 83.46"/><polygon class="cls-4" points="157.26 70.19 352.11 70.19 352.19 84.18 157.34 84.18 157.26 70.19"/><polygon class="cls-4" points="240.97 55.94 338.06 55.94 338.1 69.93 241.01 69.93 240.97 55.94"/><polygon class="cls-4" points="296.5 42.02 338.08 42.01 338.1 56 296.52 56.01 296.5 42.02"/><polygon class="cls-4" points="171.19 139.49 365.87 139.48 365.95 153.47 171.27 153.47 171.19 139.49"/><polygon class="cls-4" points="171.19 152.92 365.87 152.91 365.95 166.9 171.27 166.91 171.19 152.92"/><polygon class="cls-4" points="185.11 167.01 365.87 167 365.95 180.99 185.19 181 185.11 167.01"/><polygon class="cls-4" points="185.11 181.09 379.63 181.09 379.71 195.08 185.19 195.08 185.11 181.09"/><polygon class="cls-4" points="185.11 195.02 379.63 195.01 379.71 209 185.19 209.01 185.11 195.02"/><polygon class="cls-4" points="185.11 208.62 379.63 208.61 379.71 222.6 185.19 222.6 185.11 208.62"/><polygon class="cls-4" points="199.03 222.54 323.96 222.53 324.01 236.52 199.09 236.53 199.03 222.54"/><polygon class="cls-4" points="199.03 236.63 268.29 236.62 268.32 250.61 199.06 250.62 199.03 236.63"/></g></g></g></g></g></g></svg>